<svg width="14" height="17" fill="none" xmlns="http://www.w3.org/2000/svg"><path d="M2.593 8.426c0 .358-.29.648-.649.648H.648a.648.648 0 110-1.296h1.296c.359 0 .649.29.649.648zm0-4.148a.648.648 0 00-.649-.648H.648a.648.648 0 100 1.296h1.296c.359 0 .649-.29.649-.648zm0 8.296a.648.648 0 00-.649-.648H.648a.648.648 0 100 1.296h1.296c.359 0 .649-.29.649-.648zM14 2.074v12.704a2.074 2.074 0 01-2.074 2.074H2.852a2.074 2.074 0 01-2.074-2.074V13.74h1.167a1.168 1.168 0 000-2.334H.778V9.593h1.166c.644 0 1.167-.524 1.167-1.167s-.523-1.167-1.167-1.167H.778V5.444h1.166a1.167 1.167 0 000-2.333H.778V2.074C.778.93 1.706 0 2.852 0h9.074C13.07 0 14 .929 14 2.074zM5.778 6.148a2 2 0 104 0 2 2 0 00-4 0zm5.11 4.889a2.222 2.222 0 00-2.221-2.222H6.889a2.222 2.222 0 00-2.222 2.222v.889h6.222v-.89z" fill="#004436"/></svg>