<svg width="14" height="12" fill="none" xmlns="http://www.w3.org/2000/svg"><path d="M11.722 2.667h-1.666a.277.277 0 01-.264-.19l-.175-.527A1.387 1.387 0 008.299 1H5.7c-.599 0-1.128.382-1.317.95l-.176.527a.278.278 0 01-.264.19H2.278A1.947 1.947 0 00.333 4.61v5c0 1.072.873 1.945 1.945 1.945h9.444a1.947 1.947 0 001.945-1.945v-5a1.947 1.947 0 00-1.945-1.944zm1.39 6.944A1.39 1.39 0 0111.721 11H2.278a1.39 1.39 0 01-1.39-1.389v-5a1.39 1.39 0 011.39-1.389h1.666a.833.833 0 00.791-.57l.176-.527a.832.832 0 01.79-.57H8.3c.359 0 .677.23.79.57l.176.528c.114.34.432.57.79.57h1.667a1.39 1.39 0 011.39 1.388v5h0z" fill="#fff" stroke="#fff" stroke-width=".5"/><path d="M7 3.777a3.337 3.337 0 00-3.333 3.334A3.337 3.337 0 007 10.444a3.337 3.337 0 003.333-3.333A3.337 3.337 0 007 3.777zm0 6.111a2.78 2.78 0 01-2.778-2.777A2.78 2.78 0 017 4.333 2.78 2.78 0 019.778 7.11 2.78 2.78 0 017 9.888z" fill="#fff" stroke="#fff" stroke-width=".5"/><path d="M7 4.89a2.224 2.224 0 00-2.223 2.222.278.278 0 00.556 0c0-.92.748-1.667 1.667-1.667a.278.278 0 000-.556z" fill="#fff" stroke="#fff" stroke-width=".5"/></svg>