<svg width="17" height="17" fill="none" xmlns="http://www.w3.org/2000/svg"><path d="M0 17h7.727V9.273H0V17zm1.545-6.182h4.637v4.625H1.545v-4.625z" fill="#fff"/><path d="M4.636 12.364H3.091v1.545h1.545v-1.546zm9.273 3.091h-1.546V17h1.546v-1.545zm3.091 0h-1.546V17H17v-1.545z" fill="#fff"/><path d="M15.454 10.818H13.91V9.273H9.273V17h1.545v-4.636h1.545v1.545H17V9.273h-1.546v1.545zM0 7.727h7.727V0H0v7.727zm1.545-6.182h4.637v4.637H1.545V1.545z" fill="#fff"/><path d="M4.636 3.09H3.091v1.546h1.545V3.091zM9.273 0v7.727H17V0H9.273zm6.181 6.182h-4.636V1.545h4.636v4.637z" fill="#fff"/><path d="M13.909 3.09h-1.546v1.546h1.546V3.091z" fill="#fff"/></svg>