<svg width="16" height="16" fill="none" xmlns="http://www.w3.org/2000/svg"><path d="M8.747 16H7.253a.998.998 0 01-.99-.88l-.16-1.25a6.293 6.293 0 01-.916-.38l-.996.774a.994.994 0 01-1.323-.084l-1.05-1.05a.992.992 0 01-.081-1.32l.774-.996a6.153 6.153 0 01-.38-.916l-1.253-.16A1 1 0 010 8.748V7.253c0-.504.378-.93.88-.99l1.25-.16a6.3 6.3 0 01.38-.916l-.773-.996a.994.994 0 01.084-1.324l1.05-1.05a.993.993 0 011.32-.081l.996.775c.291-.149.598-.276.916-.38l.16-1.253c.06-.5.486-.878.99-.878h1.494c.504 0 .93.378.99.88l.16 1.25c.318.104.625.231.916.38l.996-.774a.994.994 0 011.324.085l1.05 1.05a.992.992 0 01.081 1.319l-.774.997c.15.291.277.598.38.916l1.253.159a1 1 0 01.877.991v1.494c0 .504-.378.93-.88.99l-1.25.16a6.371 6.371 0 01-.38.916l.774.996a.993.993 0 01-.085 1.323l-1.05 1.05a.99.99 0 01-1.319.081l-.997-.774c-.291.15-.598.277-.916.38l-.159 1.253a1 1 0 01-.991.878zm-3.594-3.24c.056 0 .112.014.163.042.367.205.765.37 1.183.49a.333.333 0 01.238.279l.187 1.466c.02.168.165.296.33.296h1.493a.335.335 0 00.328-.292l.188-1.47a.333.333 0 01.238-.278c.418-.12.816-.285 1.183-.49a.333.333 0 01.367.028l1.166.906a.328.328 0 00.437-.022l1.057-1.057a.33.33 0 00.026-.44l-.907-1.167a.333.333 0 01-.028-.366 5.6 5.6 0 00.49-1.183.333.333 0 01.279-.239l1.466-.186a.338.338 0 00.296-.33V7.253a.336.336 0 00-.292-.328l-1.47-.188a.333.333 0 01-.278-.238 5.597 5.597 0 00-.49-1.183.331.331 0 01.028-.367l.906-1.166a.327.327 0 00-.022-.436L12.66 2.29a.328.328 0 00-.44-.026l-1.167.907a.334.334 0 01-.367.028 5.573 5.573 0 00-1.183-.491.333.333 0 01-.239-.278L9.077.963a.338.338 0 00-.33-.296H7.253a.336.336 0 00-.328.292l-.188 1.47a.334.334 0 01-.238.278c-.419.12-.817.286-1.183.49a.334.334 0 01-.367-.027l-1.167-.907a.327.327 0 00-.436.022L2.289 3.343a.33.33 0 00-.026.44l.907 1.166c.082.106.093.25.028.367a5.56 5.56 0 00-.49 1.183.333.333 0 01-.279.238l-1.466.187a.337.337 0 00-.296.33v1.493c0 .164.128.309.292.328l1.47.188c.132.016.241.11.278.238.12.418.285.816.49 1.183a.332.332 0 01-.028.367l-.906 1.166a.327.327 0 00.022.436L3.34 13.71a.33.33 0 00.44.026l1.167-.907a.344.344 0 01.205-.069z" fill="#fff"/><path d="M8 11.333A3.337 3.337 0 014.667 8 3.337 3.337 0 018 4.667 3.337 3.337 0 0111.333 8 3.337 3.337 0 018 11.333zm0-6A2.67 2.67 0 005.333 8 2.67 2.67 0 008 10.667 2.67 2.67 0 0010.667 8 2.67 2.67 0 008 5.333z" fill="#fff"/></svg>